<svg xmlns="http://www.w3.org/2000/svg" xmlns:xlink="http://www.w3.org/1999/xlink" viewBox="0 0 193.42 40.48"><defs><style>.cls-1{isolation:isolate;}.cls-2{fill:#5f6060;}.cls-3{fill:#f27221;}.cls-4{fill:url(#radial-gradient);}.cls-5{fill:url(#radial-gradient-2);}.cls-6{fill:#490f71;}.cls-13,.cls-15,.cls-7,.cls-8{mix-blend-mode:multiply;}.cls-7{fill:url(#radial-gradient-3);}.cls-8{fill:url(#radial-gradient-4);}.cls-9{fill:url(#radial-gradient-5);}.cls-10{fill:url(#radial-gradient-6);}.cls-11{fill:url(#radial-gradient-7);}.cls-12{fill:url(#radial-gradient-8);}.cls-13{opacity:0.4;}.cls-14{fill:url(#linear-gradient);}.cls-15{fill:url(#linear-gradient-2);}.cls-16{fill:url(#radial-gradient-9);}.cls-17{fill:url(#radial-gradient-10);}.cls-18{fill:url(#radial-gradient-11);}.cls-19{fill:#ccc;}.cls-20{fill:#fff;}.cls-21{fill:#666;}</style><radialGradient id="radial-gradient" cx="168.39" cy="29.79" r="22.19" gradientTransform="translate(320.21 -46.18) rotate(146.13) scale(1 0.72)" gradientUnits="userSpaceOnUse"><stop offset="0.31" stop-color="#dedede"/><stop offset="0.39" stop-color="#9e9e9e"/><stop offset="0.52" stop-color="#404040"/><stop offset="0.58" stop-color="#1a1a1a"/><stop offset="0.61" stop-color="#202020"/><stop offset="0.83" stop-color="#4d4d4d"/></radialGradient><radialGradient id="radial-gradient-2" cx="176.14" cy="19.43" r="25.21" gradientUnits="userSpaceOnUse"><stop offset="0" stop-color="#dedede"/><stop offset="0.61" stop-color="#dedede"/><stop offset="0.66" stop-color="#bfbfbf"/><stop offset="0.77" stop-color="#717171"/><stop offset="0.9" stop-color="#0d0d0d"/><stop offset="0.91" stop-color="#141414"/><stop offset="0.93" stop-color="#262626"/><stop offset="0.95" stop-color="#444"/><stop offset="0.95" stop-color="#4d4d4d"/></radialGradient><radialGradient id="radial-gradient-3" cx="184.32" cy="34.79" r="4.04" gradientTransform="matrix(-0.02, -1, 1.65, -0.03, 126.9, 216.88)" gradientUnits="userSpaceOnUse"><stop offset="0" stop-opacity="0.3"/><stop offset="1" stop-opacity="0"/></radialGradient><radialGradient id="radial-gradient-4" cx="712.42" cy="-1800.34" r="7.22" gradientTransform="matrix(0, 1, 2.54, -0.01, 4756.86, -691.01)" gradientUnits="userSpaceOnUse"><stop offset="0.96" stop-opacity="0"/><stop offset="0.99" stop-opacity="0.33"/></radialGradient><radialGradient id="radial-gradient-5" cx="183.32" cy="43.15" r="7" gradientTransform="translate(91.9 223.37) rotate(-90.06) scale(1 2.05)" gradientUnits="userSpaceOnUse"><stop offset="0" stop-color="#fcf" stop-opacity="0.2"/><stop offset="0.26" stop-color="#fcf" stop-opacity="0.18"/><stop offset="0.6" stop-color="#fcf" stop-opacity="0.11"/><stop offset="1" stop-color="#fcf" stop-opacity="0"/></radialGradient><radialGradient id="radial-gradient-6" cx="816.1" cy="-1801.3" r="6.21" gradientTransform="translate(-4405.16 -793.74) rotate(90.18) scale(1 2.54)" gradientUnits="userSpaceOnUse"><stop offset="0.97" stop-color="#fff2ff" stop-opacity="0"/><stop offset="0.99" stop-color="#fff2ff" stop-opacity="0.44"/><stop offset="0.99" stop-color="#fff2ff" stop-opacity="0.5"/></radialGradient><radialGradient id="radial-gradient-7" cx="169.97" cy="33.22" r="7.77" gradientTransform="translate(226.33 -141.24) rotate(88.77) scale(1 1.91)" gradientUnits="userSpaceOnUse"><stop offset="0" stop-color="#9042c1"/><stop offset="0.1" stop-color="#8e40bf" stop-opacity="0.97"/><stop offset="0.23" stop-color="#883bbb" stop-opacity="0.9"/><stop offset="0.38" stop-color="#7e32b4" stop-opacity="0.78"/><stop offset="0.55" stop-color="#7027aa" stop-opacity="0.62"/><stop offset="0.6" stop-color="#6a22a6" stop-opacity="0.55"/><stop offset="0.67" stop-color="#6a22a6" stop-opacity="0.49"/><stop offset="0.8" stop-color="#6a22a6" stop-opacity="0.34"/><stop offset="0.95" stop-color="#6a22a6" stop-opacity="0.09"/><stop offset="1" stop-color="#6a22a6" stop-opacity="0"/></radialGradient><radialGradient id="radial-gradient-8" cx="177.96" cy="37.85" r="6.28" gradientTransform="matrix(0, -1, 2.51, 0.01, 82.26, 215.51)" gradientUnits="userSpaceOnUse"><stop offset="0.88" stop-color="#fff" stop-opacity="0"/><stop offset="0.91" stop-color="#fff" stop-opacity="0.2"/><stop offset="0.94" stop-color="#fff" stop-opacity="0.41"/><stop offset="0.97" stop-color="#fff" stop-opacity="0.57"/><stop offset="0.99" stop-color="#fff" stop-opacity="0.66"/><stop offset="1" stop-color="#fff" stop-opacity="0.7"/></radialGradient><linearGradient id="linear-gradient" x1="176.09" y1="35.47" x2="176.09" y2="38.56" gradientUnits="userSpaceOnUse"><stop offset="0.61" stop-color="#fff"/><stop offset="0.79" stop-color="#e0e0e0"/></linearGradient><linearGradient id="linear-gradient-2" x1="181.78" y1="44.17" x2="173.3" y2="33.21" gradientUnits="userSpaceOnUse"><stop offset="0" stop-color="#231f20" stop-opacity="0"/><stop offset="0.3" stop-color="#231f20" stop-opacity="0.13"/><stop offset="1" stop-color="#231f20" stop-opacity="0.3"/></linearGradient><radialGradient id="radial-gradient-9" cx="175.31" cy="40.2" r="17.85" gradientTransform="matrix(-1, 0.06, -0.03, -0.5, 351.9, 43.76)" gradientUnits="userSpaceOnUse"><stop offset="0.3" stop-color="#666"/><stop offset="0.48" stop-color="#626262"/><stop offset="0.65" stop-color="#565656"/><stop offset="0.74" stop-color="#4d4d4d"/><stop offset="0.75" stop-color="#424242"/><stop offset="0.78" stop-color="#252525"/><stop offset="0.81" stop-color="#131313"/><stop offset="0.83" stop-color="#0d0d0d"/><stop offset="0.84" stop-color="#131313"/><stop offset="0.86" stop-color="#252525"/><stop offset="0.87" stop-color="#424242"/><stop offset="0.89" stop-color="#6a6a6a"/><stop offset="0.91" stop-color="#999"/><stop offset="0.94" stop-color="#b8b8b8"/><stop offset="1" stop-color="#f7f7f7"/></radialGradient><radialGradient id="radial-gradient-10" cx="176.5" cy="36.89" r="17.13" gradientTransform="translate(-0.22 25.23) rotate(-0.96) scale(1 0.4)" gradientUnits="userSpaceOnUse"><stop offset="0.9" stop-color="#4d4d4d" stop-opacity="0"/><stop offset="1" stop-color="#4d4d4d"/></radialGradient><radialGradient id="radial-gradient-11" cx="176.15" cy="36.89" r="15.14" gradientTransform="matrix(1, 0, 0, 0.43, 0.02, 21.01)" gradientUnits="userSpaceOnUse"><stop offset="0.94" stop-color="#fff" stop-opacity="0.8"/><stop offset="0.95" stop-color="#fff" stop-opacity="0.7"/><stop offset="0.96" stop-color="#fff" stop-opacity="0.45"/><stop offset="0.97" stop-color="#fff" stop-opacity="0.26"/><stop offset="0.98" stop-color="#fff" stop-opacity="0.12"/><stop offset="0.99" stop-color="#fff" stop-opacity="0.03"/><stop offset="1" stop-color="#fff" stop-opacity="0"/></radialGradient></defs><title>NC-Small Cars Logo</title><g class="cls-1"><g id="Layer_1" data-name="Layer 1"><path class="cls-2" d="M3.29,5.59A1.63,1.63,0,0,1,5,3.78a1.63,1.63,0,0,1,1.7,1.81V6.41L6.76,6.48a7,7,0,0,1,5.68-2.7c3.17,0,7.14,2,7.14,7.8V23a1.7,1.7,0,1,1-3.4,0V11.77a4.65,4.65,0,0,0-4.75-5.06,4.65,4.65,0,0,0-4.75,5.06V23A1.63,1.63,0,0,1,5,24.78,1.63,1.63,0,0,1,3.29,23V5.59Z" transform="translate(-3.29 -3.18)"/><path class="cls-2" d="M26.22,15.59c0,3.51,2.24,6.25,6.06,6.25,4.52,0,5.68-2.78,6.95-2.78a1.35,1.35,0,0,1,1.24,1.51c0,1.66-4.21,4.21-8.22,4.21-6.56,0-9.42-5.06-9.42-10.5s3.47-10.5,9.23-10.5c5.6,0,8.84,5.06,8.84,10,0,1.2-.42,1.81-1.89,1.81H26.22ZM37.5,13c0-2.93-1.7-6.33-5.44-6.33-4.21-.15-5.71,3.2-5.83,6.33H37.5Z" transform="translate(-3.29 -3.18)"/><path class="cls-2" d="M42.25,6.6A5,5,0,0,1,42,5.29,1.51,1.51,0,0,1,43.6,3.78c0.73,0,1.43.27,1.89,1.74l4.36,14h0.08L54.21,6c0.46-1.47.77-2.24,2-2.24s1.54,0.77,2,2.24l4.29,13.51h0.08L67,5.52c0.46-1.47,1.16-1.74,1.89-1.74a1.51,1.51,0,0,1,1.62,1.51A5,5,0,0,1,70.2,6.6L64.56,23c-0.46,1.31-1,1.78-2,1.78s-1.51-.46-1.93-1.78L56.26,9.15H56.18L51.78,23c-0.42,1.31-1,1.78-1.93,1.78s-1.51-.46-2-1.78Z" transform="translate(-3.29 -3.18)"/><path class="cls-3" d="M81.16,3.78c3.47,0,5.52,1.2,5.52,2.59A1.44,1.44,0,0,1,85.3,7.8c-1.31,0-1.81-1.08-4.13-1.08-4.21,0-5.87,4.09-5.87,7.57s1.66,7.57,5.87,7.57c2.39,0,3-1.16,4.09-1.16a1.27,1.27,0,0,1,1.31,1.43c0,1.27-1.89,2.66-5.4,2.66-6.25,0-9.27-5.06-9.27-10.5S74.91,3.78,81.16,3.78Z" transform="translate(-3.29 -3.18)"/><path class="cls-3" d="M106.92,23.12a1.58,1.58,0,0,1-1.58,1.66,1.55,1.55,0,0,1-1.58-1.66V21.69h-0.08a6.65,6.65,0,0,1-5.6,3.09c-5.79,0-9-5.06-9-10.5s3.24-10.5,9-10.5a7.17,7.17,0,0,1,5.6,2.74h0.08V5.44a1.55,1.55,0,0,1,1.58-1.66,1.58,1.58,0,0,1,1.58,1.66V23.12Zm-8.84-1.27c4.17,0,5.64-4.09,5.64-7.57s-1.47-7.57-5.64-7.57-5.64,4.09-5.64,7.57S93.91,21.85,98.07,21.85Z" transform="translate(-3.29 -3.18)"/><path class="cls-3" d="M111.4,5.59a1.7,1.7,0,1,1,3.4,0V7.33h0.08c0.77-1.58,2.66-3.55,4.63-3.55a1.73,1.73,0,0,1,1.89,1.74c0,1-.69,1.58-2.12,1.85-2,.35-4.48,1.85-4.48,5.83V23a1.7,1.7,0,1,1-3.4,0V5.59Z" transform="translate(-3.29 -3.18)"/><path class="cls-3" d="M130.08,3.78c2.82,0,6.83,1.51,6.83,3.63a1.38,1.38,0,0,1-1.54,1.39c-1.47,0-2-2.08-5.29-2.08-1.93,0-3.59.85-3.59,2.59,0,3.59,11,3.2,11,9.15,0,4.29-3.67,6.33-7.49,6.33-4.32,0-7.72-2.16-7.72-3.9a1.45,1.45,0,0,1,1.39-1.54c1.51,0,2.74,2.51,6.45,2.51,2.47,0,4-1.39,4-2.78,0-4-11-3.78-11-9.5C123.09,5.79,126.65,3.78,130.08,3.78Z" transform="translate(-3.29 -3.18)"/><path class="cls-2" d="M143.29,20.84a2,2,0,1,1-2,2A2,2,0,0,1,143.29,20.84Z" transform="translate(-3.29 -3.18)"/><path class="cls-2" d="M154.75,11.57c2.17,0,3.45.75,3.45,1.62a0.9,0.9,0,0,1-.87.89c-0.82,0-1.13-.68-2.58-0.68-2.63,0-3.67,2.56-3.67,4.73s1,4.73,3.67,4.73c1.5,0,1.88-.72,2.56-0.72a0.79,0.79,0,0,1,.82.89c0,0.8-1.18,1.66-3.38,1.66-3.91,0-5.79-3.16-5.79-6.56S150.84,11.57,154.75,11.57Z" transform="translate(-3.29 -3.18)"/><path class="cls-2" d="M165.32,11.57c3.62,0,5.65,3.16,5.65,6.56s-2,6.56-5.65,6.56-5.65-3.16-5.65-6.56S161.7,11.57,165.32,11.57Zm0,11.29c2.61,0,3.52-2.56,3.52-4.73s-0.92-4.73-3.52-4.73S161.8,16,161.8,18.13,162.71,22.86,165.32,22.86Z" transform="translate(-3.29 -3.18)"/><path class="cls-2" d="M180.81,16.37c0-1.83-1-3-2.75-3s-2.73,1.13-2.73,3v7.19a1.06,1.06,0,1,1-2.12,0V12.7a1.06,1.06,0,1,1,2.12,0v0.39l0,0a3.66,3.66,0,0,1,3.23-1.57,3.94,3.94,0,0,1,3.52,2.17,4.44,4.44,0,0,1,3.93-2.17c2,0,4.46,1.25,4.46,4.87v7.12a1.06,1.06,0,1,1-2.12,0V16.37c0-1.83-1-3-2.75-3s-2.73,1.13-2.73,3v7.19a1.06,1.06,0,1,1-2.12,0V16.37Z" transform="translate(-3.29 -3.18)"/><path class="cls-2" d="M193.1,3.18a3.68,3.68,0,0,1,1.78.46A3.35,3.35,0,0,1,196.22,5a3.62,3.62,0,0,1,0,3.61,3.4,3.4,0,0,1-1.33,1.33,3.62,3.62,0,0,1-3.6,0A3.4,3.4,0,0,1,190,8.58,3.62,3.62,0,0,1,190,5a3.35,3.35,0,0,1,1.34-1.33A3.68,3.68,0,0,1,193.1,3.18Zm0,0.71a2.94,2.94,0,0,0-1.43.37,2.7,2.7,0,0,0-1.08,1.07,2.91,2.91,0,0,0,0,2.91,2.74,2.74,0,0,0,1.07,1.07,2.89,2.89,0,0,0,2.89,0,2.76,2.76,0,0,0,1.07-1.07,2.91,2.91,0,0,0,0-2.91,2.7,2.7,0,0,0-1.08-1.07A3,3,0,0,0,193.11,3.88Zm-1.64,4.84V4.89h2a1.51,1.51,0,0,1,.6.15,1,1,0,0,1,.36.37,1.07,1.07,0,0,1,.14.55,1,1,0,0,1-.27.71,1.23,1.23,0,0,1-.76.37,1,1,0,0,1,.27.14,1.92,1.92,0,0,1,.26.29l0.28,0.47,0.45,0.77h-1l-0.32-.62A2.59,2.59,0,0,0,193,7.31a0.86,0.86,0,0,0-.54-0.16h-0.2V8.72h-0.78Zm0.78-2.18h0.32a3.84,3.84,0,0,0,.84-0.05A0.49,0.49,0,0,0,193.75,6a0.47,0.47,0,0,0-.09-0.29,0.5,0.5,0,0,0-.26-0.18,3.72,3.72,0,0,0-.83-0.05h-0.32v1Z" transform="translate(-3.29 -3.18)"/><path class="cls-4" d="M163.54,36.37c0-2.48,3.32-4.63,8.19-5.72-6.47.82-11.19,3.36-11.19,6.37,0,3.67,7,6.64,15.71,6.64a30.78,30.78,0,0,0,10.17-1.58,33.63,33.63,0,0,1-7.39.78C170.48,42.86,163.54,40,163.54,36.37Z" transform="translate(-3.29 -3.18)"/><path class="cls-5" d="M192,37c0-3.67-7-6.64-15.71-6.64a36,36,0,0,0-4.51.28c-4.87,1.09-8.19,3.25-8.19,5.72,0,3.58,6.94,6.49,15.49,6.49a33.63,33.63,0,0,0,7.39-.78C189.8,40.85,192,39,192,37Z" transform="translate(-3.29 -3.18)"/><ellipse class="cls-6" cx="172.94" cy="33.83" rx="13.21" ry="5.6"/><ellipse id="eyebrow_shadow_right" data-name="eyebrow shadow right" class="cls-7" cx="173.03" cy="33.86" rx="12.9" ry="5.32"/><path id="lower_left_rim_shadow" data-name="lower left rim shadow" class="cls-8" d="M179.27,41.76a20.54,20.54,0,0,0,5.5-.71,25.68,25.68,0,0,1-8.47,1.31c-7.12,0-12.9-2.38-12.9-5.32a2.4,2.4,0,0,1,.26-1.07C163.79,40,172.32,41.76,179.27,41.76Z" transform="translate(-3.29 -3.18)"/><ellipse id="bottom_right_glow" data-name="bottom right glow" class="cls-9" cx="173.03" cy="33.86" rx="12.9" ry="5.32"/><path id="lower_right_rim_light" data-name="lower right rim light" class="cls-10" d="M173.33,41.76a20.54,20.54,0,0,1-5.5-.71,25.68,25.68,0,0,0,8.47,1.31c7.12,0,12.9-2.38,12.9-5.32a2.4,2.4,0,0,0-.26-1.07C188.81,40,180.28,41.76,173.33,41.76Z" transform="translate(-3.29 -3.18)"/><ellipse id="top_left_glow_circle" data-name="top left glow circle" class="cls-11" cx="173.03" cy="33.86" rx="12.9" ry="5.32"/><path id="top_left_rim_eyebrow" data-name="top left rim eyebrow" class="cls-12" d="M179.31,32.32a20.54,20.54,0,0,1,5.5.71,25.68,25.68,0,0,0-8.47-1.31c-7.12,0-12.9,2.38-12.9,5.32a2.4,2.4,0,0,0,.26,1.07C163.83,34,172.36,32.32,179.31,32.32Z" transform="translate(-3.29 -3.18)"/><path class="cls-13" d="M166.4,35.63a2,2,0,0,1,1.12.33l-0.3.75a1.18,1.18,0,0,0-.71-0.28,0.81,0.81,0,0,0-.88.76,0.65,0.65,0,0,0,.67.69,1.41,1.41,0,0,0,.76-0.24l0.15,0.8a2.38,2.38,0,0,1-1.05.28,1.38,1.38,0,0,1-1.49-1.41A1.67,1.67,0,0,1,166.4,35.63Zm12.32,0.81a1.18,1.18,0,0,1,.71.28l0.3-.75a2,2,0,0,0-1.11-.33,1.67,1.67,0,0,0-1.74,1.68,1.38,1.38,0,0,0,1.49,1.41,2.38,2.38,0,0,0,1.05-.28l-0.15-.8a1.41,1.41,0,0,1-.76.24,0.65,0.65,0,0,1-.67-0.69A0.81,0.81,0,0,1,178.72,36.44Zm-8-.67-0.49,2.81h-1l0.05-.29a1.23,1.23,0,0,1-.85.4,1.06,1.06,0,0,1-1-1.23,1.59,1.59,0,0,1,1.39-1.79,1.09,1.09,0,0,1,.83.39l0-.29h1Zm-1.13.88a0.47,0.47,0,0,0-.44-0.3,0.94,0.94,0,0,0-.72,1.08,0.46,0.46,0,0,0,.44.54,0.74,0.74,0,0,0,.62-0.75Zm3.17-1a1,1,0,0,0-.8.63l0.1-.55H171.2l-0.5,2.81h1l0.19-1.09a0.75,0.75,0,0,1,.7-0.82,1.32,1.32,0,0,1,.32,0l0.18-1A1,1,0,0,0,172.79,35.69Zm1.7,0.58a1.65,1.65,0,0,1,.8.29l0.26-.57a2.05,2.05,0,0,0-1.13-.35,1,1,0,0,0-1.15.91,1,1,0,0,0,.65.88l0.19,0.09a0.44,0.44,0,0,1,.37.33,0.29,0.29,0,0,1-.34.24,2,2,0,0,1-.92-0.32l-0.26.6a2.26,2.26,0,0,0,1.2.34,1,1,0,0,0,1.2-.94,0.92,0.92,0,0,0-.61-0.84l-0.17-.07a0.5,0.5,0,0,1-.43-0.35A0.29,0.29,0,0,1,174.5,36.27Zm1.66,1.33a0.53,0.53,0,0,0-.53.53,0.54,0.54,0,0,0,.53.53,0.53,0.53,0,0,0,.53-0.53A0.52,0.52,0,0,0,176.16,37.6Zm6.71-.57a1.65,1.65,0,0,1-1.65,1.68,1.37,1.37,0,0,1-1.49-1.41,1.66,1.66,0,0,1,1.69-1.67A1.36,1.36,0,0,1,182.87,37Zm-1,0a0.56,0.56,0,0,0-.49-0.67,0.83,0.83,0,0,0-.64.93,0.58,0.58,0,0,0,.5.67A0.82,0.82,0,0,0,181.86,37ZM187,35.69a1.23,1.23,0,0,0-1,.59,0.74,0.74,0,0,0-.77-0.59,1.19,1.19,0,0,0-.92.51l0.07-.42h-0.92L183,38.58h0.93l0.24-1.38a0.75,0.75,0,0,1,.64-0.74,0.25,0.25,0,0,1,.26.28,1.37,1.37,0,0,1,0,.24l-0.27,1.6h0.93l0.24-1.38a0.75,0.75,0,0,1,.64-0.74,0.24,0.24,0,0,1,.25.28,1.31,1.31,0,0,1,0,.24l-0.27,1.6h0.93l0.32-1.89a1.17,1.17,0,0,0,0-.2A0.76,0.76,0,0,0,187,35.69Z" transform="translate(-3.29 -3.18)"/><path class="cls-14" d="M166.27,35.47a2,2,0,0,1,1.12.33l-0.3.75a1.18,1.18,0,0,0-.71-0.28,0.81,0.81,0,0,0-.88.76,0.65,0.65,0,0,0,.67.69,1.41,1.41,0,0,0,.76-0.24l0.15,0.8a2.38,2.38,0,0,1-1.05.28,1.38,1.38,0,0,1-1.49-1.41A1.67,1.67,0,0,1,166.27,35.47Zm12.32,0.81a1.18,1.18,0,0,1,.71.28l0.3-.75a2,2,0,0,0-1.11-.33,1.67,1.67,0,0,0-1.74,1.68,1.38,1.38,0,0,0,1.49,1.41,2.38,2.38,0,0,0,1.05-.28l-0.15-.8a1.41,1.41,0,0,1-.76.24,0.65,0.65,0,0,1-.67-0.69A0.81,0.81,0,0,1,178.59,36.28Zm-8-.67-0.49,2.81h-1l0.05-.29a1.23,1.23,0,0,1-.85.4,1.06,1.06,0,0,1-1-1.23,1.59,1.59,0,0,1,1.39-1.79,1.09,1.09,0,0,1,.83.39l0-.29h1Zm-1.13.88a0.47,0.47,0,0,0-.44-0.3,0.94,0.94,0,0,0-.72,1.08,0.46,0.46,0,0,0,.44.54,0.74,0.74,0,0,0,.62-0.75Zm3.17-1a1,1,0,0,0-.8.63l0.1-.55h-0.89l-0.5,2.81h1l0.19-1.09a0.75,0.75,0,0,1,.7-0.82,1.32,1.32,0,0,1,.32,0l0.18-1A1,1,0,0,0,172.67,35.52Zm1.7,0.58a1.65,1.65,0,0,1,.8.29l0.26-.57a2.05,2.05,0,0,0-1.13-.35,1,1,0,0,0-1.15.91,1,1,0,0,0,.65.88L174,37.35a0.44,0.44,0,0,1,.37.33,0.29,0.29,0,0,1-.34.24,2,2,0,0,1-.92-0.32l-0.26.6a2.26,2.26,0,0,0,1.2.34,1,1,0,0,0,1.2-.94,0.92,0.92,0,0,0-.61-0.84l-0.17-.07a0.5,0.5,0,0,1-.43-0.35A0.29,0.29,0,0,1,174.37,36.1ZM176,37.44a0.53,0.53,0,0,0-.53.53,0.54,0.54,0,0,0,.53.53,0.53,0.53,0,0,0,.53-0.53A0.52,0.52,0,0,0,176,37.44Zm6.71-.57a1.65,1.65,0,0,1-1.65,1.68,1.37,1.37,0,0,1-1.49-1.41,1.66,1.66,0,0,1,1.69-1.67A1.36,1.36,0,0,1,182.74,36.87Zm-1,0a0.56,0.56,0,0,0-.49-0.67,0.83,0.83,0,0,0-.64.93,0.58,0.58,0,0,0,.5.67A0.82,0.82,0,0,0,181.73,36.88Zm5.11-1.36a1.23,1.23,0,0,0-1,.59,0.74,0.74,0,0,0-.77-0.59,1.19,1.19,0,0,0-.92.51l0.07-.42h-0.92l-0.47,2.81h0.93L184,37a0.75,0.75,0,0,1,.64-0.74,0.25,0.25,0,0,1,.26.28,1.37,1.37,0,0,1,0,.24l-0.27,1.6h0.93L185.78,37a0.75,0.75,0,0,1,.64-0.74,0.24,0.24,0,0,1,.25.28,1.31,1.31,0,0,1,0,.24l-0.27,1.6h0.93l0.32-1.89a1.17,1.17,0,0,0,0-.2A0.76,0.76,0,0,0,186.85,35.52Z" transform="translate(-3.29 -3.18)"/><path class="cls-15" d="M189.41,37c0,3.07-5.9,5.56-13.17,5.56S163.06,40.07,163.06,37s5.9-5.56,13.17-5.56S189.41,33.93,189.41,37Zm-13.09-5.29c-7.12,0-12.89,2.38-12.89,5.32s5.77,5.32,12.89,5.32S189.21,40,189.21,37,183.44,31.71,176.32,31.71Z" transform="translate(-3.29 -3.18)"/><path d="M189.41,41.65h-0.19V41.57h0.47v0.08H189.5v0.53h-0.09V41.65Z" transform="translate(-3.29 -3.18)"/><path d="M189.78,41.57h0.14l0.19,0.51,0.19-.51h0.14v0.61h-0.09V41.65h0l-0.2.53h-0.09l-0.2-.53h0v0.53h-0.09V41.57Z" transform="translate(-3.29 -3.18)"/><path id="inner_ring-gradient" data-name="inner ring-gradient" class="cls-16" d="M176.23,43.09c7.93,0,14.36-2.73,14.36-6.09s-6.43-6.09-14.36-6.09S161.88,33.64,161.88,37,168.3,43.09,176.23,43.09ZM189.72,37c0,3.12-6,5.65-13.48,5.65S162.75,40.12,162.75,37s6-5.65,13.48-5.65S189.72,33.88,189.72,37Z" transform="translate(-3.29 -3.18)"/><path id="outer_ring-rim_shadow" data-name="outer ring-rim shadow" class="cls-17" d="M192,37c0,3.67-7,6.64-15.71,6.64s-15.71-3-15.71-6.64,7-6.64,15.71-6.64S192,33.34,192,37Zm-30.31,0c0,3.46,6.55,6.27,14.63,6.27S190.9,40.44,190.9,37s-6.55-6.27-14.63-6.27S161.64,33.52,161.64,37Z" transform="translate(-3.29 -3.18)"/><path id="outer_ring-rim_highlight" data-name="outer ring-rim highlight" class="cls-18" d="M192,37c0,3.67-7,6.64-15.71,6.64s-15.71-3-15.71-6.64,7-6.64,15.71-6.64S192,33.34,192,37Zm-30.31,0c0,3.46,6.55,6.27,14.63,6.27S190.9,40.44,190.9,37s-6.55-6.27-14.63-6.27S161.64,33.52,161.64,37Z" transform="translate(-3.29 -3.18)"/><path class="cls-19" d="M189.75,37c0,3.14-6.05,5.69-13.52,5.69S162.71,40.14,162.71,37s6.05-5.69,13.52-5.69S189.75,33.86,189.75,37Zm-13.52-5.56c-7.28,0-13.17,2.49-13.17,5.56s5.9,5.56,13.17,5.56,13.17-2.49,13.17-5.56S183.51,31.44,176.23,31.44Z" transform="translate(-3.29 -3.18)"/><path class="cls-20" d="M176.27,30.71c8.08,0,14.63,2.81,14.63,6.27s-6.55,6.27-14.63,6.27S161.64,40.44,161.64,37,168.19,30.71,176.27,30.71Zm0,12.34c7.91,0,14.32-2.71,14.32-6.05s-6.41-6.05-14.32-6.05S161.91,33.66,161.91,37,168.32,43.05,176.23,43.05Z" transform="translate(-3.29 -3.18)"/><path class="cls-21" d="M5.28,37.91L4.51,40.23h-1L6,32.84H7.18L9.7,40.23h-1L7.9,37.91H5.28Zm2.42-.75L7,35c-0.16-.48-0.27-0.92-0.38-1.35h0c-0.11.44-.23,0.89-0.37,1.34L5.48,37.16H7.7Z" transform="translate(-3.29 -3.18)"/><path class="cls-21" d="M13.08,36.36c0-.55,0-1,0-1.44h0.84l0,0.85h0a1.83,1.83,0,0,1,1.67-1,1.57,1.57,0,0,1,1.5,1.06h0a2.17,2.17,0,0,1,.59-0.69,1.81,1.81,0,0,1,1.17-.37c0.7,0,1.74.46,1.74,2.3v3.12H19.71v-3c0-1-.37-1.63-1.15-1.63a1.25,1.25,0,0,0-1.14.88,1.59,1.59,0,0,0-.08.48v3.28H16.4V37.05a1.22,1.22,0,0,0-1.11-1.46A1.44,1.44,0,0,0,14,37v3.2H13.08V36.36Z" transform="translate(-3.29 -3.18)"/><path class="cls-21" d="M22.75,37.75a1.7,1.7,0,0,0,1.82,1.84A3.47,3.47,0,0,0,26,39.32L26.2,40a4.3,4.3,0,0,1-1.76.33,2.46,2.46,0,0,1-2.61-2.67,2.57,2.57,0,0,1,2.49-2.86,2.25,2.25,0,0,1,2.19,2.5,3.66,3.66,0,0,1,0,.45H22.75Zm2.83-.69a1.37,1.37,0,0,0-1.34-1.57,1.6,1.6,0,0,0-1.48,1.57h2.82Z" transform="translate(-3.29 -3.18)"/><path class="cls-21" d="M27.7,36.36c0-.55,0-1,0-1.44H28.5l0,0.85h0a1.83,1.83,0,0,1,1.67-1,1.57,1.57,0,0,1,1.5,1.06h0a2.17,2.17,0,0,1,.59-0.69,1.81,1.81,0,0,1,1.17-.37c0.7,0,1.74.46,1.74,2.3v3.12H34.33v-3c0-1-.37-1.63-1.15-1.63a1.25,1.25,0,0,0-1.14.88A1.59,1.59,0,0,0,32,37v3.28H31V37.05a1.22,1.22,0,0,0-1.11-1.46A1.44,1.44,0,0,0,28.65,37v3.2H27.7V36.36Z" transform="translate(-3.29 -3.18)"/><path class="cls-21" d="M36.8,40.23c0-.36,0-0.9,0-1.37V32.45h1v3.33h0a2,2,0,0,1,1.81-1c1.32,0,2.25,1.1,2.24,2.71,0,1.9-1.19,2.84-2.38,2.84a1.89,1.89,0,0,1-1.77-1h0l0,0.88H36.8Zm1-2.12a1.84,1.84,0,0,0,0,.35,1.49,1.49,0,0,0,1.45,1.13c1,0,1.61-.82,1.61-2a1.72,1.72,0,0,0-1.58-2,1.54,1.54,0,0,0-1.47,1.18,1.89,1.89,0,0,0-.05.39v1Z" transform="translate(-3.29 -3.18)"/><path class="cls-21" d="M43.61,37.75a1.7,1.7,0,0,0,1.82,1.84,3.47,3.47,0,0,0,1.47-.27L47.06,40a4.3,4.3,0,0,1-1.76.33,2.46,2.46,0,0,1-2.61-2.67,2.57,2.57,0,0,1,2.49-2.86,2.25,2.25,0,0,1,2.19,2.5,3.66,3.66,0,0,1,0,.45H43.61Zm2.83-.69a1.37,1.37,0,0,0-1.34-1.57,1.6,1.6,0,0,0-1.48,1.57h2.82Z" transform="translate(-3.29 -3.18)"/><path class="cls-21" d="M48.56,36.58c0-.62,0-1.16,0-1.65h0.84l0,1h0a1.59,1.59,0,0,1,1.47-1.16,1.06,1.06,0,0,1,.27,0v0.91a1.47,1.47,0,0,0-.33,0A1.35,1.35,0,0,0,49.56,37a2.76,2.76,0,0,0,0,.45v2.83h-1V36.58Z" transform="translate(-3.29 -3.18)"/><path class="cls-21" d="M59.27,37.53a2.59,2.59,0,0,1-2.64,2.81,2.52,2.52,0,0,1-2.54-2.73,2.59,2.59,0,0,1,2.63-2.82A2.51,2.51,0,0,1,59.27,37.53Zm-4.21.05a1.66,1.66,0,1,0,3.22,0A1.66,1.66,0,1,0,55.06,37.59Z" transform="translate(-3.29 -3.18)"/><path class="cls-21" d="M60.58,40.23V35.66H59.84V34.93h0.74V34.67a2.5,2.5,0,0,1,.61-1.85,1.84,1.84,0,0,1,1.29-.49,2.23,2.23,0,0,1,.82.15l-0.13.75a1.44,1.44,0,0,0-.61-0.12c-0.82,0-1,.72-1,1.53v0.29h1.28v0.73H61.54v4.57h-1Z" transform="translate(-3.29 -3.18)"/><path class="cls-21" d="M67.17,33.4v1.52h1.38v0.73H67.17v2.86c0,0.66.19,1,.72,1a2.15,2.15,0,0,0,.56-0.07l0,0.72a2.38,2.38,0,0,1-.85.13,1.34,1.34,0,0,1-1-.41,2,2,0,0,1-.37-1.38V35.66H65.4V34.93h0.82V33.65Z" transform="translate(-3.29 -3.18)"/><path class="cls-21" d="M69.63,32.45h1v3.31h0a1.79,1.79,0,0,1,.69-0.68,2,2,0,0,1,1-.27c0.71,0,1.85.44,1.85,2.27v3.16h-1v-3c0-.85-0.32-1.58-1.23-1.58a1.39,1.39,0,0,0-1.29,1,1.17,1.17,0,0,0-.07.46v3.2h-1V32.45Z" transform="translate(-3.29 -3.18)"/><path class="cls-21" d="M76.25,37.75a1.7,1.7,0,0,0,1.82,1.84,3.47,3.47,0,0,0,1.47-.27L79.7,40a4.3,4.3,0,0,1-1.76.33,2.46,2.46,0,0,1-2.61-2.67,2.57,2.57,0,0,1,2.49-2.86A2.25,2.25,0,0,1,80,37.3a3.66,3.66,0,0,1,0,.45H76.25Zm2.83-.69a1.37,1.37,0,0,0-1.34-1.57,1.6,1.6,0,0,0-1.48,1.57h2.82Z" transform="translate(-3.29 -3.18)"/><path class="cls-21" d="M88.72,40a4.72,4.72,0,0,1-1.95.35,3.45,3.45,0,0,1-3.65-3.74A3.67,3.67,0,0,1,87,32.72a4,4,0,0,1,1.75.33l-0.23.78A3.47,3.47,0,0,0,87,33.52a2.75,2.75,0,0,0-2.88,3,2.68,2.68,0,0,0,2.84,3,3.82,3.82,0,0,0,1.56-.31Z" transform="translate(-3.29 -3.18)"/><path class="cls-21" d="M92.74,40.23l-0.08-.67h0a2,2,0,0,1-1.62.79,1.51,1.51,0,0,1-1.62-1.52c0-1.28,1.14-2,3.19-2V36.74a1.09,1.09,0,0,0-1.21-1.23,2.64,2.64,0,0,0-1.38.39l-0.22-.64a3.3,3.3,0,0,1,1.74-.47,1.88,1.88,0,0,1,2,2.17v2a7.47,7.47,0,0,0,.09,1.27H92.74Zm-0.14-2.71c-1.05,0-2.25.16-2.25,1.19a0.85,0.85,0,0,0,.91.92,1.32,1.32,0,0,0,1.28-.89,1,1,0,0,0,.05-0.31V37.52Z" transform="translate(-3.29 -3.18)"/><path class="cls-21" d="M95.08,36.58c0-.62,0-1.16,0-1.65h0.84l0,1h0a1.59,1.59,0,0,1,1.47-1.16,1.06,1.06,0,0,1,.27,0v0.91a1.47,1.47,0,0,0-.33,0A1.35,1.35,0,0,0,96.08,37a2.76,2.76,0,0,0,0,.45v2.83h-1V36.58Z" transform="translate(-3.29 -3.18)"/><path class="cls-21" d="M98.53,39.24a2.53,2.53,0,0,0,1.27.38,0.86,0.86,0,0,0,1-.79,1.09,1.09,0,0,0-1-1,1.7,1.7,0,0,1-1.4-1.5,1.64,1.64,0,0,1,1.83-1.56,2.65,2.65,0,0,1,1.3.33l-0.24.7a2.07,2.07,0,0,0-1.08-.31,0.77,0.77,0,0,0-.89.72c0,0.44.32,0.64,1,.9a1.7,1.7,0,0,1,1.39,1.6c0,0.93-.72,1.59-2,1.59A3,3,0,0,1,98.29,40Z" transform="translate(-3.29 -3.18)"/><path class="cls-21" d="M102.65,39.66a0.65,0.65,0,0,1,.66-0.69A0.69,0.69,0,1,1,102.65,39.66Z" transform="translate(-3.29 -3.18)"/><path class="cls-21" d="M108.93,40a3.55,3.55,0,0,1-1.52.31,2.52,2.52,0,0,1-2.64-2.71,2.69,2.69,0,0,1,2.85-2.82,3.22,3.22,0,0,1,1.34.27l-0.22.75a2.24,2.24,0,0,0-1.12-.25,2,2,0,0,0,0,4,2.75,2.75,0,0,0,1.18-.26Z" transform="translate(-3.29 -3.18)"/><path class="cls-21" d="M114.79,37.53a2.59,2.59,0,0,1-2.64,2.81,2.52,2.52,0,0,1-2.54-2.73,2.59,2.59,0,0,1,2.63-2.82A2.51,2.51,0,0,1,114.79,37.53Zm-4.21.05a1.66,1.66,0,1,0,3.22,0A1.66,1.66,0,1,0,110.58,37.59Z" transform="translate(-3.29 -3.18)"/><path class="cls-21" d="M116,36.36c0-.55,0-1,0-1.44h0.84l0,0.85h0a1.83,1.83,0,0,1,1.67-1,1.57,1.57,0,0,1,1.5,1.06h0a2.17,2.17,0,0,1,.59-0.69,1.81,1.81,0,0,1,1.17-.37c0.7,0,1.74.46,1.74,2.3v3.12h-0.94v-3c0-1-.37-1.63-1.15-1.63a1.25,1.25,0,0,0-1.14.88,1.59,1.59,0,0,0-.08.48v3.28h-0.94V37.05a1.22,1.22,0,0,0-1.11-1.46A1.44,1.44,0,0,0,116.95,37v3.2H116V36.36Z" transform="translate(-3.29 -3.18)"/><path class="cls-21" d="M127.56,40.23V35.66h-0.74V34.93h0.74V34.67a2.5,2.5,0,0,1,.61-1.85,1.84,1.84,0,0,1,1.29-.49,2.23,2.23,0,0,1,.82.15l-0.13.75a1.44,1.44,0,0,0-.61-0.12c-0.82,0-1,.72-1,1.53v0.29h1.28v0.73h-1.28v4.57h-1Z" transform="translate(-3.29 -3.18)"/><path class="cls-21" d="M133.6,40.23l-0.08-.67h0a2,2,0,0,1-1.62.79,1.51,1.51,0,0,1-1.62-1.52c0-1.28,1.14-2,3.19-2V36.74a1.09,1.09,0,0,0-1.21-1.23,2.64,2.64,0,0,0-1.38.39l-0.22-.64a3.3,3.3,0,0,1,1.74-.47,1.88,1.88,0,0,1,2,2.17v2a7.47,7.47,0,0,0,.09,1.27H133.6Zm-0.14-2.71c-1.05,0-2.25.16-2.25,1.19a0.85,0.85,0,0,0,.91.92,1.32,1.32,0,0,0,1.28-.89,1,1,0,0,0,.05-0.31V37.52Z" transform="translate(-3.29 -3.18)"/><path class="cls-21" d="M135.95,36.36c0-.55,0-1,0-1.44h0.84l0,0.85h0a1.83,1.83,0,0,1,1.67-1,1.57,1.57,0,0,1,1.5,1.06h0a2.17,2.17,0,0,1,.59-0.69,1.81,1.81,0,0,1,1.17-.37c0.7,0,1.74.46,1.74,2.3v3.12h-0.94v-3c0-1-.37-1.63-1.15-1.63a1.25,1.25,0,0,0-1.14.88,1.59,1.59,0,0,0-.08.48v3.28h-0.94V37.05a1.22,1.22,0,0,0-1.11-1.46A1.44,1.44,0,0,0,136.89,37v3.2h-0.94V36.36Z" transform="translate(-3.29 -3.18)"/><path class="cls-21" d="M146.16,33.43a0.6,0.6,0,0,1-1.19,0,0.59,0.59,0,0,1,.6-0.6A0.57,0.57,0,0,1,146.16,33.43Zm-1.07,6.79v-5.3h1v5.3h-1Z" transform="translate(-3.29 -3.18)"/><path class="cls-21" d="M147.65,32.45h1v7.78h-1V32.45Z" transform="translate(-3.29 -3.18)"/><path class="cls-21" d="M150.58,34.93l1.16,3.13c0.12,0.35.25,0.77,0.34,1.08h0c0.1-.32.21-0.72,0.34-1.11l1.05-3.11h1l-1.45,3.78A8.07,8.07,0,0,1,151.25,42a2.6,2.6,0,0,1-1.18.62l-0.24-.81a2.55,2.55,0,0,0,.84-0.47,2.93,2.93,0,0,0,.81-1.07,0.69,0.69,0,0,0,.08-0.23,0.86,0.86,0,0,0-.07-0.25l-2-4.89h1.05Z" transform="translate(-3.29 -3.18)"/></g></g></svg>