<?xml version="1.0" standalone="no"?>
<!DOCTYPE svg PUBLIC "-//W3C//DTD SVG 1.1//EN" "http://www.w3.org/Graphics/SVG/1.1/DTD/svg11.dtd">
<!--Generator: Xara Xtreme (www.xara.com), SVG filter version: 1.0.0.13-->
<svg stroke-width="0.501" stroke-linejoin="bevel" fill-rule="evenodd" xmlns:xlink="http://www.w3.org/1999/xlink" xmlns="http://www.w3.org/2000/svg" version="1.1" overflow="visible" width="5697.65pt" height="2437.8pt" viewBox="0 0 5697.65 2437.8">
 <defs>
  <marker id="DefaultArrow2" markerUnits="strokeWidth" viewBox="0 0 1 1" markerWidth="1" markerHeight="1" overflow="visible" orient="auto">
   <!-- REF_ARROW_STRAIGHT (-2) -->
   <g transform="scale(0.0092592592)">
    <!-- 1/108 -->
    <path d="M -9 54 L -9 -54 L 117 0 z"/>
   </g>
  </marker>
  <marker id="DefaultArrow3" markerUnits="strokeWidth" viewBox="0 0 1 1" markerWidth="1" markerHeight="1" overflow="visible" orient="auto">
   <!-- REF_ARROW_ANGLED -->
   <g transform="scale(0.0092592592)">
    <path d="M -27 54 L -9 0 L -27 -54 L 135 0 z"/>
   </g>
  </marker>
  <marker id="DefaultArrow4" markerUnits="strokeWidth" viewBox="0 0 1 1" markerWidth="1" markerHeight="1" overflow="visible" orient="auto">
   <!-- REF_ARROW_ROUNDED -->
   <g transform="scale(0.0092592592)">
    <path d="M -9,0 L -9,-45 C -9,-51.708 2.808,-56.580 9,-54 L 117,-9 C 120.916,-7.369 126.000,-4.242 126,0 C 126,4.242 120.916,7.369 117,9 L 9,54 C 2.808,56.580 -9,51.708 -9,45 z"/>
   </g>
  </marker>
  <marker id="DefaultArrow5" markerUnits="strokeWidth" viewBox="0 0 1 1" markerWidth="1" markerHeight="1" overflow="visible" orient="auto">
   <!-- REF_ARROW_SPOT -->
   <g transform="scale(0.0092592592)">
    <path d="M -54, 0 C -54,29.807 -29.807,54 0,54 C 29.807,54 54,29.807 54,0 C 54,-29.807 29.807,-54 0,-54 C -29.807,-54 -54,-29.807 -54,0 z"/>
   </g>
  </marker>
  <marker id="DefaultArrow6" markerUnits="strokeWidth" viewBox="0 0 1 1" markerWidth="1" markerHeight="1" overflow="visible" orient="auto">
   <!-- REF_ARROW_DIAMOND -->
   <g transform="scale(0.0092592592)">
    <path d="M -63,0 L 0,63 L 63,0 L 0,-63 z"/>
   </g>
  </marker>
  <marker id="DefaultArrow7" markerUnits="strokeWidth" viewBox="0 0 1 1" markerWidth="1" markerHeight="1" overflow="visible" orient="auto">
   <!-- REF_ARROW_FEATHER -->
   <g transform="scale(0.0092592592)">
    <path d="M 18,-54 L 108,-54 L 63,0 L 108,54 L 18, 54 L -36,0 z"/>
   </g>
  </marker>
  <marker id="DefaultArrow8" markerUnits="strokeWidth" viewBox="0 0 1 1" markerWidth="1" markerHeight="1" overflow="visible" orient="auto">
   <!-- REF_ARROW_FEATHER2 -->
   <g transform="scale(0.0092592592)">
    <path d="M -36,0 L 18,-54 L 54,-54 L 18,-18 L 27,-18 L 63,-54 L 99,-54 L 63,-18 L 72,-18 L 108,-54 L 144,-54 L 90,0 L 144,54 L 108,54 L 72,18 L 63,18 L 99,54 L 63,54 L 27,18 L 18,18 L 54,54 L 18,54 z"/>
   </g>
  </marker>
  <marker id="DefaultArrow9" markerUnits="strokeWidth" viewBox="0 0 1 1" markerWidth="1" markerHeight="1" overflow="visible" orient="auto">
   <!-- REF_ARROW_HOLLOWDIAMOND -->
   <g transform="scale(0.0092592592)">
    <path d="M 0,45 L -45,0 L 0, -45 L 45, 0 z M 0, 63 L-63, 0 L 0, -63 L 63, 0 z"/>
   </g>
  </marker>
  <filter id="StainedFilter">
   <feBlend mode="multiply" in2="BackgroundImage" in="SourceGraphic" result="blend"/>
   <feComposite in="blend" in2="SourceAlpha" operator="in" result="comp"/>
  </filter>
  <filter id="BleachFilter">
   <feBlend mode="screen" in2="BackgroundImage" in="SourceGraphic" result="blend"/>
   <feComposite in="blend" in2="SourceAlpha" operator="in" result="comp"/>
  </filter>
  <filter id="InvertTransparencyBitmapFilter">
   <feComponentTransfer>
    <feFuncR type="gamma" amplitude="1.055" exponent=".416666666" offset="-0.055"/>
    <feFuncG type="gamma" amplitude="1.055" exponent=".416666666" offset="-0.055"/>
    <feFuncB type="gamma" amplitude="1.055" exponent=".416666666" offset="-0.055"/>
   </feComponentTransfer>
   <feComponentTransfer>
    <feFuncR type="linear" slope="-1" intercept="1"/>
    <feFuncG type="linear" slope="-1" intercept="1"/>
    <feFuncB type="linear" slope="-1" intercept="1"/>
    <feFuncA type="linear" slope="1" intercept="0"/>
   </feComponentTransfer>
   <feComponentTransfer>
    <feFuncR type="gamma" amplitude="1" exponent="2.4" offset="0"/>
    <feFuncG type="gamma" amplitude="1" exponent="2.4" offset="0"/>
    <feFuncB type="gamma" amplitude="1" exponent="2.4" offset="0"/>
   </feComponentTransfer>
  </filter>
  <radialGradient id="RadialGradient" gradientUnits="userSpaceOnUse" cx="0" cy="0" r="297.932" gradientTransform="translate(719.664 671.249) scale(1 0.266735)">
   <stop offset="0" stop-color="#727272"/>
   <stop offset="1" stop-color="#000000"/>
  </radialGradient>
  <linearGradient id="LinearGradient" gradientUnits="userSpaceOnUse" x1="0" y1="0" x2="673.555" y2="0" gradientTransform="translate(268.211 1744.89) rotate(-40.9772)">
   <stop offset="0" stop-color="#5a9fd4"/>
   <stop offset="1" stop-color="#306998"/>
  </linearGradient>
  <linearGradient id="LinearGradient_1" gradientUnits="userSpaceOnUse" x1="0" y1="0" x2="316.62" y2="0" gradientTransform="translate(848.069 936.096) rotate(124.996)">
   <stop offset="0" stop-color="#ffd43b"/>
   <stop offset="1" stop-color="#ffe873"/>
  </linearGradient>
  <linearGradient id="LinearGradient_2" gradientUnits="userSpaceOnUse" x1="0" y1="0" x2="1545.607" y2="0" gradientTransform="translate(3862.89 932.772)">
   <stop offset="0" stop-color="#4c8cbf"/>
   <stop offset="1" stop-color="#306898"/>
  </linearGradient>
 </defs>
 <g id="Document" fill="none" stroke="black" font-family="Times New Roman" font-size="16" transform="scale(1 -1)">
  <g id="Spread" transform="translate(0 -2437.8)">
   <g id="Logo">
    <g id="Group" stroke="none">
     <mask id="TranspMask">
      <rect x="-10%" y="-10%" width="120%" height="120%" fill="url(#RadialGradient)" stroke="none"/>
     </mask>
     <path d="M 1017.6,671.259 C 1017.6,627.349 884.2,591.771 719.672,591.771 C 555.119,591.771 421.722,627.349 421.722,671.259 C 421.722,715.157 555.119,750.726 719.672,750.726 C 884.2,750.726 1017.6,715.157 1017.6,671.259 L 1017.6,671.259 Z" fill="#7f7f7f" fill-rule="nonzero" marker-start="none" marker-end="none" mask="url(#TranspMask)"/>
     <g id="Group_1">
      <g id="Group_2" fill-rule="nonzero">
       <path d="M 723.596,1744.88 C 685.588,1744.7 649.29,1741.47 617.352,1735.81 C 523.269,1719.2 506.193,1684.4 506.193,1620.25 L 506.193,1535.54 L 728.518,1535.54 L 728.518,1507.29 L 506.193,1507.29 L 422.755,1507.29 C 358.147,1507.29 301.558,1468.46 283.866,1394.58 C 263.45,1309.9 262.552,1257.06 283.866,1168.64 C 299.661,1102.83 337.404,1055.94 402.019,1055.94 L 478.463,1055.94 L 478.463,1157.49 C 478.463,1230.88 541.95,1295.6 617.352,1295.6 L 839.41,1295.6 C 901.242,1295.6 950.578,1346.5 950.578,1408.58 L 950.578,1620.25 C 950.578,1680.5 899.746,1725.76 839.41,1735.81 C 801.215,1742.18 761.606,1745.06 723.596,1744.88 L 723.596,1744.88 Z M 603.353,1676.74 C 626.321,1676.74 645.073,1657.68 645.073,1634.24 C 645.073,1610.9 626.321,1592.01 603.353,1592.01 C 580.304,1592.01 561.643,1610.9 561.643,1634.24 C 561.643,1657.68 580.304,1676.74 603.353,1676.74 L 603.353,1676.74 Z" marker-start="none" marker-end="none" fill="url(#LinearGradient)"/>
       <path d="M 978.309,1507.29 L 978.309,1408.58 C 978.309,1332.04 913.407,1267.62 839.41,1267.62 L 617.352,1267.62 C 556.516,1267.62 506.193,1215.56 506.193,1154.65 L 506.193,942.975 C 506.193,882.71 558.572,847.282 617.352,829.983 C 687.724,809.31 755.216,805.564 839.41,829.983 C 895.387,846.196 950.578,878.803 950.578,942.975 L 950.578,1027.69 L 728.518,1027.69 L 728.518,1055.94 L 950.578,1055.94 L 1061.75,1055.94 C 1126.35,1055.94 1150.43,1101 1172.91,1168.64 C 1196.11,1238.27 1195.13,1305.25 1172.91,1394.58 C 1156.94,1458.91 1126.45,1507.29 1061.75,1507.29 L 978.309,1507.29 L 978.309,1507.29 Z M 853.408,971.204 C 876.458,971.204 895.128,952.318 895.128,928.967 C 895.128,905.535 876.458,886.473 853.408,886.473 C 830.441,886.473 811.699,905.535 811.699,928.967 C 811.699,952.318 830.441,971.204 853.408,971.204 L 853.408,971.204 Z" marker-start="none" marker-end="none" fill="url(#LinearGradient_1)"/>
      </g>
     </g>
     <g id="Group_3" fill-rule="nonzero" stroke-width="0.25" fill="#333333" stroke-miterlimit="79.8403193612775">
      <g id="Group_4">
       <path d="M 1753.48,1268.99 C 1753.48,1209.84 1739.5,1160.77 1711.57,1121.77 C 1680.38,1077.58 1637.17,1054.83 1581.95,1053.53 C 1540.36,1052.23 1497.49,1065.23 1453.32,1092.54 L 1453.32,840.032 L 1383.09,865.38 L 1383.09,1425.93 C 1394.82,1440.23 1409.81,1452.58 1428.05,1462.98 C 1470.4,1487.68 1521.87,1500.35 1582.45,1501 L 1583.44,1500.03 C 1638.81,1500.68 1681.48,1477.93 1711.46,1431.78 C 1739.46,1389.54 1753.48,1335.28 1753.48,1268.99 Z M 1671.59,1273.82 C 1671.59,1390.13 1638.28,1449.92 1571.67,1453.17 C 1545.16,1454.46 1519.29,1450.24 1494.07,1440.49 C 1474.01,1433.36 1460.43,1426.2 1453.32,1419.06 L 1453.32,1141.27 C 1496,1114.64 1533.84,1102.29 1566.82,1104.22 C 1636.67,1108.79 1671.59,1165.32 1671.59,1273.82 Z" marker-start="none" marker-end="none"/>
       <path d="M 2189.54,1103.23 C 2189.55,1023.93 2181.59,969.006 2165.67,938.459 C 2149.74,907.911 2119.36,883.538 2074.52,865.326 C 2038.12,851.04 1998.81,843.241 1956.57,841.927 L 1944.89,886.788 C 1987.75,892.637 2017.94,898.487 2035.48,904.336 C 2069.9,916.035 2093.61,933.909 2106.6,957.971 C 2116.99,977.469 2122.19,1014.86 2122.19,1070.11 C 2122.23,1082.46 2122.23,1088.64 2122.19,1088.64 C 2073.46,1066.5 2022.47,1055.44 1969.19,1055.44 C 1934.11,1055.44 1903.25,1066.49 1876.61,1088.58 C 1846.73,1112.63 1831.78,1143.18 1831.79,1180.24 L 1831.79,1476.63 L 1903.91,1501 L 1903.91,1202.69 C 1903.91,1170.86 1914.14,1146.32 1934.61,1129.08 C 1955.09,1111.87 1981.57,1103.59 2014.07,1104.22 C 2046.56,1104.89 2081.33,1117.56 2118.38,1142.26 L 2118.38,1490.31 L 2189.54,1490.31 L 2189.54,1103.23 Z" marker-start="none" marker-end="none"/>
       <path d="M 2467.56,1057.36 C 2459.11,1056.71 2451.31,1056.38 2444.16,1056.38 C 2403.85,1056.38 2372.49,1065.97 2350.06,1085.14 C 2327.62,1104.32 2316.41,1130.8 2316.41,1164.59 L 2316.41,1444.36 L 2267.62,1444.36 L 2267.62,1490.29 L 2316.41,1490.29 L 2316.41,1609.19 L 2387.59,1634.54 L 2387.59,1490.29 L 2467.56,1490.29 L 2467.56,1444.36 L 2387.59,1444.36 L 2387.59,1166.54 C 2387.59,1139.9 2394.74,1121.05 2409.05,1110.01 C 2421.4,1100.91 2440.9,1095.71 2467.56,1094.41 L 2467.56,1057.36 Z" marker-start="none" marker-end="none"/>
       <path d="M 2911.73,1063.29 L 2839.61,1063.29 L 2839.61,1338.12 C 2839.61,1366.07 2833.11,1390.11 2820.11,1410.24 C 2805.16,1432.99 2784.36,1444.36 2757.73,1444.36 C 2725.22,1444.36 2684.59,1427.14 2635.86,1392.71 L 2635.86,1063.29 L 2564.68,1063.29 L 2564.68,1720.42 L 2635.86,1742.84 L 2635.86,1443.51 C 2681.34,1476.6 2731.06,1493.15 2785,1493.15 C 2822.7,1493.15 2853.24,1480.48 2876.64,1455.14 C 2900.03,1429.79 2911.73,1398.28 2911.73,1360.59 L 2911.73,1063.29 Z" marker-start="none" marker-end="none"/>
       <path d="M 3380.66,1284.57 C 3380.66,1220.86 3364.4,1167.89 3331.9,1125.66 C 3296.14,1078.2 3246.72,1054.47 3183.66,1054.49 C 3121.24,1054.47 3072.47,1078.2 3037.36,1125.66 C 3005.5,1167.89 2989.57,1220.86 2989.57,1284.57 C 2989.57,1344.37 3006.8,1394.74 3041.26,1435.68 C 3077.67,1479.23 3125.46,1501 3184.64,1501 C 3243.8,1501 3291.91,1479.23 3328.97,1435.68 C 3363.42,1394.74 3380.66,1344.37 3380.66,1284.57 Z M 3302.58,1284.5 C 3302.6,1329.36 3294.15,1366.41 3277.25,1395.66 C 3257.1,1431.41 3225.9,1450.25 3183.66,1452.22 C 3105.68,1447.67 3066.69,1391.8 3066.69,1284.6 L 3066.69,1284.6 C 3066.69,1235.17 3074.84,1193.88 3091.16,1160.71 C 3112.04,1118.44 3143.38,1097.63 3185.14,1098.28 C 3263.45,1098.93 3302.6,1161.01 3302.58,1284.5 Z" marker-start="none" marker-end="none"/>
       <path d="M 3802.7,1063.29 L 3731.53,1063.29 L 3731.53,1353.72 C 3731.53,1385.57 3721.95,1410.42 3702.76,1428.29 C 3683.58,1446.15 3658.06,1454.76 3626.21,1454.11 C 3592.41,1453.46 3560.24,1442.41 3529.67,1420.98 L 3529.67,1063.29 L 3458.51,1063.29 L 3458.51,1429.85 C 3499.46,1459.75 3537.16,1479.23 3571.61,1488.33 C 3604.11,1496.78 3632.72,1501 3657.42,1501 C 3674.32,1501 3690.25,1499.38 3705.2,1496.13 C 3733.16,1489.63 3755.91,1477.61 3773.45,1460.06 C 3792.96,1440.56 3802.71,1417.17 3802.7,1389.88 L 3802.7,1063.29 Z" marker-start="none" marker-end="none"/>
      </g>
     </g>
     <g id="Group_5" fill-rule="nonzero" stroke-width="0.25" fill="#333333" stroke-miterlimit="79.8403193612775">
      <g id="Group_6">
       <path d="M 4050.17,1364.98 C 4050.17,1346.85 4041.49,1331.9 4024.13,1320.15 L 4024.13,1319.85 C 4012.18,1312.27 3998.23,1308.49 3982.29,1308.49 C 3971.73,1308.49 3960.87,1310.88 3949.71,1315.66 C 3939.35,1319.85 3930.78,1325.13 3924.01,1331.51 L 3933.28,1346.76 C 3949.03,1333.6 3965.47,1327.11 3982.62,1327.31 C 3994.38,1327.51 4003.74,1330.1 4010.72,1335.07 C 4020.09,1342.04 4024.78,1350.89 4024.78,1361.64 C 4024.78,1369.8 4022.18,1376.42 4016.99,1381.49 C 4011.79,1386.57 4003.4,1391 3991.82,1394.78 L 3973.03,1401.17 C 3956.68,1406.55 3945.41,1412.53 3939.23,1419.1 C 3931.85,1426.87 3928.17,1436.93 3928.17,1449.28 C 3928.17,1465.22 3933.7,1478.17 3944.76,1488.14 C 3955.82,1498.1 3970.42,1503.08 3988.55,1503.08 C 4004.7,1503.08 4020.54,1497.4 4036.09,1486.04 L 4026.82,1471.69 C 4014.67,1480.65 4002.31,1485.13 3989.76,1485.13 C 3978.2,1485.13 3969.13,1482.34 3962.55,1476.76 C 3955.98,1471.18 3952.59,1463.61 3952.39,1454.05 C 3952.19,1441.3 3962.96,1431.44 3984.68,1424.47 L 4005.9,1417.59 C 4021.05,1412.61 4032.22,1405.94 4039.4,1397.57 C 4046.58,1389.2 4050.17,1378.34 4050.17,1364.98 Z" marker-start="none" marker-end="none"/>
       <path d="M 4230.11,1407.73 L 4230.11,1407.73 C 4230.11,1382.22 4223.23,1359.81 4209.48,1340.48 C 4193.94,1318.76 4173.82,1307.9 4149.11,1307.9 C 4124.4,1307.9 4104.28,1318.76 4088.74,1340.48 C 4074.99,1359.81 4068.12,1382.23 4068.12,1407.73 C 4068.12,1433.04 4075.18,1454.86 4089.3,1473.19 C 4104.61,1493.12 4124.5,1503.08 4148.96,1503.08 C 4173.62,1503.08 4193.61,1493.12 4208.93,1473.19 C 4223.05,1454.86 4230.11,1433.04 4230.11,1407.73 Z M 4205,1407.73 C 4205.01,1428.06 4200.43,1445.7 4191.26,1460.66 C 4180.7,1477.8 4166.65,1486.37 4149.12,1486.37 C 4131.39,1486.37 4117.24,1477.8 4106.68,1460.66 C 4097.32,1445.7 4092.64,1428.06 4092.64,1407.73 C 4092.64,1386 4097.42,1367.17 4106.98,1351.22 C 4117.74,1333.68 4131.68,1324.9 4148.82,1324.9 C 4165.95,1324.9 4179.9,1333.68 4190.66,1351.22 C 4200.23,1367.17 4205.01,1386 4205,1407.73 Z" marker-start="none" marker-end="none"/>
       <path d="M 4361.86,1498.85 L 4354.08,1483.6 L 4278.78,1483.6 L 4278.78,1419.39 L 4341.83,1419.39 L 4333.72,1404.43 L 4278.78,1404.43 L 4278.78,1310.6 L 4257.25,1310.6 L 4257.25,1498.85 L 4361.86,1498.85 Z" marker-start="none" marker-end="none"/>
       <path d="M 4501.39,1484.26 L 4446.09,1484.26 L 4446.09,1310.6 L 4423.98,1310.6 L 4423.98,1484.26 L 4367.8,1484.26 L 4374.67,1498.92 L 4501.39,1499.21 L 4501.39,1484.26 Z" marker-start="none" marker-end="none"/>
       <path d="M 4737.12,1500.08 L 4687.8,1313.88 L 4670.87,1307.83 L 4624.97,1470.59 L 4584.08,1313.88 L 4567.06,1307.9 L 4514.46,1495 L 4535.56,1502.74 L 4577.8,1350.3 L 4617.87,1495 L 4639.39,1502.79 L 4681.61,1350.06 L 4724.25,1502.79 L 4737.12,1500.08 Z" marker-start="none" marker-end="none"/>
       <path d="M 4891.08,1310.6 L 4868.07,1310.6 L 4847.77,1369.19 L 4775.11,1369.19 L 4753.56,1310.6 L 4737.16,1310.6 L 4805.31,1495.89 L 4826.52,1502.79 L 4891.08,1310.6 Z M 4843.35,1383.27 L 4813.39,1472.44 L 4780.29,1383.27 L 4843.35,1383.27 Z" marker-start="none" marker-end="none"/>
       <path d="M 5025.96,1310.6 L 4999.63,1310.6 L 4949.72,1398.74 L 4933.88,1398.74 L 4933.88,1310.6 L 4912.06,1310.6 L 4912.06,1499.21 L 4971.53,1499.21 C 4986.47,1499.21 4999.11,1494.28 5009.48,1484.4 C 5019.83,1474.53 5025.01,1462.52 5025.01,1448.36 C 5025.01,1434.01 5020.22,1422.14 5010.65,1412.77 C 5001.07,1403.39 4989.1,1398.71 4974.73,1398.71 L 5025.96,1310.6 Z M 5002.9,1448.98 C 5002.9,1457.95 4999.52,1465.98 4992.75,1473.06 C 4985.97,1480.13 4978,1483.67 4968.84,1483.67 L 4933.88,1483.67 L 4933.88,1413.99 L 4968.54,1413.99 C 4978.7,1413.99 4986.97,1417.33 4993.34,1424.01 C 4999.72,1430.69 5002.9,1439.02 5002.9,1448.98 Z" marker-start="none" marker-end="none"/>
       <path d="M 5157.79,1499.21 L 5150.32,1483.96 L 5074.71,1483.96 L 5074.71,1419.39 L 5137.47,1419.39 L 5129.7,1404.43 L 5074.71,1404.43 L 5074.71,1325.56 L 5156,1325.56 L 5156,1310.6 L 5053.18,1310.6 L 5053.18,1498.92 L 5157.79,1499.21 Z" marker-start="none" marker-end="none"/>
      </g>
      <g id="Group_7">
       <path d="M 4037.59,1248.75 L 4029.82,1233.5 L 3954.51,1233.5 L 3954.51,1169.29 L 4017.56,1169.29 L 4009.46,1154.33 L 3954.51,1154.33 L 3954.51,1060.5 L 3932.98,1060.5 L 3932.98,1248.75 L 4037.59,1248.75 Z" marker-start="none" marker-end="none"/>
       <path d="M 4205.59,1157.63 L 4205.59,1157.63 C 4205.59,1132.12 4198.72,1109.71 4184.97,1090.38 C 4169.43,1068.66 4149.3,1057.8 4124.6,1057.8 C 4099.89,1057.8 4079.77,1068.66 4064.23,1090.38 C 4050.48,1109.71 4043.6,1132.13 4043.6,1157.63 C 4043.6,1182.94 4050.66,1204.76 4064.78,1223.09 C 4080.1,1243.02 4099.98,1252.98 4124.44,1252.98 C 4149.11,1252.98 4169.1,1243.02 4184.41,1223.09 C 4198.53,1204.76 4205.59,1182.94 4205.59,1157.63 Z M 4180.49,1157.63 C 4180.49,1177.96 4175.91,1195.6 4166.74,1210.56 C 4156.18,1227.69 4142.14,1236.27 4124.6,1236.27 C 4106.87,1236.27 4092.72,1227.69 4082.17,1210.56 C 4072.8,1195.6 4068.12,1177.96 4068.12,1157.63 C 4068.12,1135.9 4072.9,1117.06 4082.47,1101.12 C 4093.22,1083.58 4107.17,1074.8 4124.3,1074.8 C 4141.44,1074.8 4155.39,1083.58 4166.15,1101.12 C 4175.71,1117.06 4180.49,1135.9 4180.49,1157.63 Z" marker-start="none" marker-end="none"/>
       <path d="M 4367.22,1124.45 C 4367.21,1104.92 4360.69,1088.93 4347.64,1076.48 C 4334.58,1064.03 4318.19,1057.8 4298.46,1057.8 C 4279.33,1057.8 4263.34,1063.98 4250.48,1076.33 C 4237.63,1088.68 4231.2,1104.63 4231.2,1124.16 L 4231.2,1245.21 L 4253.61,1252.69 L 4253.61,1127.76 C 4253.6,1092.89 4269.15,1075.55 4300.26,1075.75 C 4315.82,1075.75 4328.03,1080.53 4336.9,1090.1 C 4345.77,1099.66 4350.21,1112.41 4350.21,1128.35 L 4350.21,1248.78 L 4367.22,1248.78 L 4367.22,1124.45 Z" marker-start="none" marker-end="none"/>
       <path d="M 4543.87,1060.5 L 4522.33,1060.5 L 4416.83,1214.72 L 4416.83,1060.5 L 4401.58,1060.5 L 4401.58,1246.7 L 4418.89,1252.68 L 4528.91,1091.84 L 4528.91,1248.78 L 4543.87,1248.78 L 4543.87,1060.5 Z" marker-start="none" marker-end="none"/>
       <path d="M 4714.25,1151.62 C 4714.25,1127.12 4707.47,1105.8 4693.93,1087.67 C 4679.38,1068.15 4661.15,1058.39 4639.24,1058.39 C 4618.72,1058.39 4598.89,1066.16 4579.77,1081.7 L 4579.77,1249.11 L 4640.14,1248.75 C 4664.24,1248.55 4683.07,1238.18 4696.62,1217.67 C 4708.37,1199.54 4714.25,1177.53 4714.25,1151.62 Z M 4689.44,1149.23 C 4689.44,1205.6 4668.13,1233.79 4625.49,1233.79 L 4601.88,1233.79 L 4601.88,1086.78 C 4611.44,1078.01 4622.4,1073.64 4634.75,1073.64 C 4651.89,1073.64 4665.63,1081.9 4675.99,1098.44 C 4684.96,1112.98 4689.44,1129.91 4689.44,1149.23 Z" marker-start="none" marker-end="none"/>
       <path d="M 4880.14,1060.5 L 4857.13,1060.5 L 4836.83,1119.09 L 4764.17,1119.09 L 4742.62,1060.5 L 4726.22,1060.5 L 4794.37,1245.79 L 4815.58,1252.69 L 4880.14,1060.5 Z M 4832.41,1133.17 L 4802.45,1222.34 L 4769.35,1133.17 L 4832.41,1133.17 Z" marker-start="none" marker-end="none"/>
       <path d="M 5001.81,1234.15 L 4946.51,1234.15 L 4946.51,1060.5 L 4924.4,1060.5 L 4924.4,1234.15 L 4868.21,1234.15 L 4875.09,1248.81 L 5001.81,1249.11 L 5001.81,1234.15 Z" marker-start="none" marker-end="none"/>
       <path d="M 5047.78,1060.5 L 5025.68,1060.5 L 5025.68,1244.92 L 5047.78,1252.39 L 5047.78,1060.5 Z" marker-start="none" marker-end="none"/>
       <path d="M 5236.77,1157.63 L 5236.77,1157.63 C 5236.77,1132.12 5229.9,1109.71 5216.15,1090.38 C 5200.61,1068.66 5180.48,1057.8 5155.78,1057.8 C 5131.07,1057.8 5110.95,1068.66 5095.41,1090.38 C 5081.66,1109.71 5074.78,1132.13 5074.78,1157.63 C 5074.78,1182.94 5081.84,1204.76 5095.96,1223.09 C 5111.28,1243.02 5131.16,1252.98 5155.63,1252.98 C 5180.29,1252.98 5200.28,1243.02 5215.59,1223.09 C 5229.71,1204.76 5236.77,1182.94 5236.77,1157.63 Z M 5211.67,1157.63 C 5211.67,1177.96 5207.09,1195.6 5197.92,1210.56 C 5187.36,1227.69 5173.32,1236.27 5155.78,1236.27 C 5138.05,1236.27 5123.9,1227.69 5113.35,1210.56 C 5103.98,1195.6 5099.3,1177.96 5099.3,1157.63 C 5099.3,1135.9 5104.08,1117.06 5113.65,1101.12 C 5124.4,1083.58 5138.35,1074.8 5155.48,1074.8 C 5172.62,1074.8 5186.57,1083.58 5197.33,1101.12 C 5206.89,1117.06 5211.67,1135.9 5211.67,1157.63 Z" marker-start="none" marker-end="none"/>
       <path d="M 5406.2,1060.5 L 5384.66,1060.5 L 5279.17,1214.72 L 5279.17,1060.5 L 5263.91,1060.5 L 5263.91,1246.7 L 5281.22,1252.68 L 5391.24,1091.84 L 5391.24,1248.78 L 5406.2,1248.78 L 5406.2,1060.5 Z" marker-start="none" marker-end="none"/>
      </g>
     </g>
     <path d="M 2317.32,932.775 L 2317.32,932.774 C 2317.32,913.081 2333.31,897.097 2353,897.097 L 5372.85,897.107 C 5392.55,897.107 5408.53,913.091 5408.52,932.785 L 5408.52,932.786 C 5408.51,952.479 5392.52,968.463 5372.83,968.463 L 2352.98,968.453 C 2333.29,968.453 2317.31,952.469 2317.32,932.775 Z" stroke-width="0.5" stroke-linejoin="miter" marker-start="none" marker-end="none" stroke-miterlimit="79.8403193612775" fill="url(#LinearGradient_2)"/>
    </g>
   </g>
   <g id="Layer_1"/>
  </g>
 </g>
</svg>
